# File created by Blade
# Date/Time:  Fri Jan 16 17:52:57 2015
#---------------------------------------------------------
:version 1.10
:name HOM
:units
  mass 1.0
  length 1.000000
  angle deg
:documentation
     Acclaim Skeleton File
:root
   axis xyz
   order TX TY TZ RX RY RZ
   position 0.000000 0.000000 0.000000
   orientation 0 0 0
:bonedata
   begin
      id 1
      name Spine_dum
      direction 0.000000 1.000000 0.000000
      length 7.170412
      axis 0.0 0.0 0.0 xyz
   end
   begin
      id 2
      name LeftUpLeg_dum
      direction 1.000000 0.000000 0.000000
      length 4.318350
      axis 0.0 0.0 0.0 xyz
   end
   begin
      id 3
      name RightUpLeg_dum
      direction -1.000000 0.000000 0.000000
      length 4.318350
      axis 0.0 0.0 0.0 xyz
   end
   begin
      id 4
      name Spine
      direction 0.000000 1.000000 0.000000
      length 0.000000
      axis 0.0 0.0 0.0 xyz
      dof rx ry rz
   end
   begin
      id 5
      name Spine_dum1
      direction 0.000000 1.000000 0.000000
      length 14.276153
      axis 0.0 0.0 0.0 xyz
   end
   begin
      id 6
      name Spine_dum2
      direction 0.000000 1.000000 0.000000
      length 10.718243
      axis 0.0 0.0 0.0 xyz
   end
   begin
      id 7
      name Spine_dum3
      direction 0.000000 1.000000 0.000000
      length 10.718243
      axis 0.0 0.0 0.0 xyz
   end
   begin
      id 8
      name Head
      direction 0.000000 1.000000 0.000000
      length 4.527550
      axis 0.0 0.0 0.0 xyz
      dof rx ry rz
   end
   begin
      id 9
      name LeftShoulder
      direction 1.000000 0.000000 0.000000
      length 7.058872
      axis 0.0 0.0 -90.0 xyz
      dof rx ry rz
   end
   begin
      id 10
      name LeftArm
      direction 1.000000 0.000000 0.000000
      length 10.955525
      axis 0.0 0.0 -90.0 xyz
      dof rx ry rz
   end
   begin
      id 11
      name LeftForeArm
      direction 1.000000 0.000000 0.000000
      length 8.193716
      axis 0.0 0.0 -90.0 xyz
      dof ry rz rx
   end
   begin
      id 12
      name LeftHand
      direction 0.000000 0.000000 0.000000
      length 0.000000
      axis 0.0 0.0 -90.0 xyz
      dof rx ry rz
   end
   begin
      id 13
      name LeftHand_dum1
      direction 0.000000 0.000000 0.000000
      length 0.000000
      axis 0.0 0.0 -90.0 xyz
   end
   begin
      id 14
      name LeftHand_dum2
      direction 1.000000 0.000000 0.000000
      length 3.937000
      axis 0.0 0.0 -90.0 xyz
   end
   begin
      id 15
      name LeftHandThumb1
      direction 0.000000 0.000000 1.000000
      length 3.937000
      axis 0.0 0.0 -90.0 xyz
      dof rx rz ry
   end
   begin
      id 16
      name RightShoulder
      direction -1.000000 0.000000 0.000000
      length 7.058872
      axis 0.0 0.0 90.0 xyz
      dof rx ry rz
   end
   begin
      id 17
      name RightArm
      direction -1.000000 0.000000 0.000000
      length 10.955525
      axis 0.0 0.0 90.0 xyz
      dof rx ry rz
   end
   begin
      id 18
      name RightForeArm
      direction -1.000000 0.000000 0.000000
      length 8.193716
      axis 0.0 0.0 90.0 xyz
      dof ry rz rx
   end
   begin
      id 19
      name RightHand
      direction 0.000000 0.000000 0.000000
      length 0.000000
      axis 0.0 0.0 90.0 xyz
      dof rx ry rz
   end
   begin
      id 20
      name RightHand_dum1
      direction 0.000000 0.000000 0.000000
      length 0.000000
      axis 0.0 0.0 90.0 xyz
   end
   begin
      id 21
      name RightHand_dum2
      direction -1.000000 0.000000 0.000000
      length 3.937000
      axis 0.0 0.0 90.0 xyz
   end
   begin
      id 22
      name RightHandThumb1
      direction 0.000000 0.000000 1.000000
      length 3.937000
      axis 0.0 0.0 90.0 xyz
      dof rx rz ry
   end
   begin
      id 23
      name LeftUpLeg
      direction 0.000000 -1.000000 0.000000
      length 17.323638
      axis 0.0 0.0 0.0 xyz
      dof rx ry rz
   end
   begin
      id 24
      name LeftLeg
      direction 0.000000 -1.000000 0.000000
      length 16.270368
      axis 0.0 0.0 0.0 xyz
      dof rx ry rz
   end
   begin
      id 25
      name LeftFoot
      direction 0.000000 -0.258819 0.965926
      length 4.922846
      axis 15.0 0.0 0.0 xyz
      dof rx ry rz
   end
   begin
      id 26
      name LeftToeBase
      direction 0.000000 0.000000 1.000000
      length 2.952750
      axis 0.0 0.0 0.0 xyz
      dof rx ry rz
   end
   begin
      id 27
      name RightUpLeg
      direction 0.000000 -1.000000 0.000000
      length 17.323638
      axis 0.0 0.0 0.0 xyz
      dof rx ry rz
   end
   begin
      id 28
      name RightLeg
      direction 0.000000 -1.000000 0.000000
      length 16.270368
      axis 0.0 0.0 0.0 xyz
      dof rx ry rz
   end
   begin
      id 29
      name RightFoot
      direction 0.000000 -0.258819 0.965926
      length 4.922846
      axis 15.0 0.0 0.0 xyz
      dof rx ry rz
   end
   begin
      id 30
      name RightToeBase
      direction 0.000000 0.000000 1.000000
      length 2.952750
      axis 0.0 0.0 0.0 xyz
      dof rx ry rz
   end
:hierarchy
   begin
      root Spine_dum LeftUpLeg_dum RightUpLeg_dum
      Spine_dum Spine
      LeftUpLeg_dum LeftUpLeg
      RightUpLeg_dum RightUpLeg
      Spine Spine_dum1 Spine_dum2 Spine_dum3
      Spine_dum1 Head
      Spine_dum2 LeftShoulder
      Spine_dum3 RightShoulder
      LeftShoulder LeftArm
      LeftArm LeftForeArm
      LeftForeArm LeftHand
      LeftHand LeftHand_dum1 LeftHand_dum2
      LeftHand_dum1 LeftHandThumb1
      RightShoulder RightArm
      RightArm RightForeArm
      RightForeArm RightHand
      RightHand RightHand_dum1 RightHand_dum2
      RightHand_dum1 RightHandThumb1
      LeftUpLeg LeftLeg
      LeftLeg LeftFoot
      LeftFoot LeftToeBase
      RightUpLeg RightLeg
      RightLeg RightFoot
      RightFoot RightToeBase
   end

# File created by Blade
# Date/Time:  Fri Jan 16 17:53:05 2015
# Frame Rate: 120.000 fps
#------------------------------------------------------
:FULLY-SPECIFIED
:DEGREES
1231
root -3.464183 35.275916 -10.901976 -3.875527 5.964671 -8.846965
Spine 1.983171 -8.417465 8.899109
Head 3.394670 1.050926 -4.500861
LeftShoulder -22.805253 16.407903 -8.465776
LeftArm 23.415014 -25.337033 -67.693102
LeftForeArm -1.077342 -0.000000 128.355212
LeftHand 2.648277 -0.000000 13.457700
LeftHandThumb1 -26.253704 0.000000 33.147579
RightShoulder -5.801778 -7.241056 -0.804172
RightArm 1.776711 -20.898260 72.787321
RightForeArm -16.510700 -0.000000 21.624587
RightHand -0.101273 0.000000 -2.636073
RightHandThumb1 -24.326973 -0.000000 -32.862282
LeftUpLeg 12.126156 -2.466677 -2.141951
LeftLeg -8.198612 -0.000000 0.000000
LeftFoot -14.985987 30.203066 -3.640254
LeftToeBase 19.853205 -0.000000 -0.000000
RightUpLeg -8.973366 -9.163072 9.629315
RightLeg 112.441321 -0.000000 -0.000000
RightFoot 43.933456 -24.064534 -11.351796
RightToeBase 2.821509 -0.000000 -0.000000
1232
root -3.470313 35.277286 -10.890802 -3.891596 5.976719 -8.865270
Spine 1.981892 -8.394190 8.894624
Head 3.422696 1.042390 -4.498832
LeftShoulder -22.842482 16.463135 -8.504076
LeftArm 23.408972 -25.339353 -67.635898
LeftForeArm -1.106826 0.000000 128.471785
LeftHand 2.496262 -0.000000 13.451536
LeftHandThumb1 -26.253704 0.000000 33.147579
RightShoulder -5.788772 -7.253962 -0.806134
RightArm 1.831258 -20.925109 72.769827
RightForeArm -16.661658 -0.000000 21.650959
RightHand -0.173591 0.000000 -2.504617
RightHandThumb1 -24.326973 -0.000000 -32.862282
LeftUpLeg 12.121606 -2.651652 -2.132662
LeftLeg -8.109880 -0.000000 0.000000
LeftFoot -15.023367 30.274125 -3.612034
LeftToeBase 19.820640 -0.000000 -0.000000
RightUpLeg -8.901825 -10.451781 9.773191
RightLeg 112.261378 -0.000000 -0.000000
RightFoot 44.099251 -23.601215 -11.095668
RightToeBase 2.241918 -0.000000 -0.000000
1233
root -3.475650 35.279130 -10.883649 -3.884116 6.004189 -8.877244
Spine 1.962546 -8.373682 8.893404
Head 3.436314 1.018942 -4.514041
LeftShoulder -22.886015 16.507613 -8.564931
LeftArm 23.418522 -25.333465 -67.536868
LeftForeArm -1.158063 -0.000000 128.569161
LeftHand 2.426643 0.000000 13.481097
LeftHandThumb1 -26.253704 0.000000 33.147579
RightShoulder -5.789114 -7.275792 -0.815068
RightArm 1.914990 -20.974571 72.757204
RightForeArm -16.556227 -0.000000 21.607056
RightHand -0.049696 -0.000000 -2.496221
RightHandThumb1 -24.326973 -0.000000 -32.862282
LeftUpLeg 12.054774 -2.843757 -2.125800
LeftLeg -7.957707 -0.000000 0.000000
LeftFoot -15.091893 30.319353 -3.562945
LeftToeBase 19.861982 -0.000000 -0.000000
RightUpLeg -8.854079 -11.753031 9.906894
RightLeg 112.070706 -0.000000 -0.000000
RightFoot 44.226250 -23.423552 -10.827072
RightToeBase 2.079829 -0.000000 -0.000000
1234
root -3.478566 35.280809 -10.874117 -3.890098 6.057093 -8.878569
Spine 1.946293 -8.380816 8.879837
Head 3.463879 0.991015 -4.528910
LeftShoulder -22.928877 16.559949 -8.617249
LeftArm 23.424994 -25.313965 -67.455516
LeftForeArm -1.235372 -0.000000 128.665274
LeftHand 2.420228 -0.000000 13.503021
LeftHandThumb1 -26.253704 0.000000 33.147579
RightShoulder -5.787275 -7.285003 -0.821117
RightArm 1.967964 -21.083549 72.724399
RightForeArm -16.451872 0.000000 21.617004
RightHand -0.086587 -0.000000 -2.969122
RightHandThumb1 -24.326973 -0.000000 -32.862282
LeftUpLeg 12.011898 -3.028355 -2.130657
LeftLeg -7.825418 -0.000000 0.000000
LeftFoot -15.141527 30.341225 -3.541641
LeftToeBase 19.860845 -0.000000 -0.000000
RightUpLeg -8.780720 -13.059556 9.998299
RightLeg 111.887111 -0.000000 -0.000000
RightFoot 44.495760 -23.127457 -10.674625
RightToeBase 1.084723 -0.000000 -0.000000
1235
root -3.481615 35.282433 -10.863498 -3.909687 6.104933 -8.889258
Spine 1.949482 -8.359410 8.874858
Head 3.484803 0.955859 -4.527999
LeftShoulder -22.970507 16.610748 -8.661875
LeftArm 23.456626 -25.273647 -67.376372
LeftForeArm -1.343872 -0.000000 128.733064
LeftHand 2.460468 -0.000000 13.410102
LeftHandThumb1 -26.253704 0.000000 33.147579
RightShoulder -5.801886 -7.286229 -0.829448
RightArm 1.995305 -21.075451 72.725125
RightForeArm -16.535406 -0.000000 21.625562
RightHand -0.010920 -0.000000 -2.674992
RightHandThumb1 -24.326973 -0.000000 -32.862282
LeftUpLeg 11.989239 -3.199982 -2.126904
LeftLeg -7.707203 -0.000000 0.000000
LeftFoot -15.204643 30.361758 -3.530862
LeftToeBase 19.861650 -0.000000 -0.000000
RightUpLeg -8.682952 -14.298383 10.087602
RightLeg 111.700513 -0.000000 -0.000000
RightFoot 44.656663 -22.744388 -10.516641
RightToeBase 0.855911 -0.000000 -0.000000
